<?xml version="1.0" encoding="UTF-8" standalone="no"?>
<svg
   width="30"
   height="30"
   viewBox="0 0 30 30"
   fill="none"
   version="1.1"
   id="svg1"
   sodipodi:docname="check.svg"
   inkscape:version="1.4.2 (f4327f4, 2025-05-13)"
   xmlns:inkscape="http://www.inkscape.org/namespaces/inkscape"
   xmlns:sodipodi="http://sodipodi.sourceforge.net/DTD/sodipodi-0.dtd"
   xmlns="http://www.w3.org/2000/svg"
   xmlns:svg="http://www.w3.org/2000/svg">
  <defs
     id="defs1">
    <linearGradient
       id="swatch12"
       inkscape:swatch="solid">
      <stop
         style="stop-color:#000000;stop-opacity:1;"
         offset="0"
         id="stop12" />
    </linearGradient>
    <linearGradient
       id="linearGradient10"
       inkscape:swatch="gradient">
      <stop
         style="stop-color:#2f54f2;stop-opacity:1;"
         offset="0"
         id="stop10" />
      <stop
         style="stop-color:#000000;stop-opacity:0;"
         offset="1"
         id="stop11" />
    </linearGradient>
    <linearGradient
       id="swatch8">
      <stop
         style="stop-color:#000000;stop-opacity:1;"
         offset="0"
         id="stop9" />
    </linearGradient>
  </defs>
  <sodipodi:namedview
     id="namedview1"
     pagecolor="#ffffff"
     bordercolor="#000000"
     borderopacity="0.25"
     inkscape:showpageshadow="2"
     inkscape:pageopacity="0.0"
     inkscape:pagecheckerboard="0"
     inkscape:deskcolor="#d1d1d1"
     inkscape:zoom="25.766667"
     inkscape:cx="15"
     inkscape:cy="15.019405"
     inkscape:window-width="1031"
     inkscape:window-height="1020"
     inkscape:window-x="804"
     inkscape:window-y="7"
     inkscape:window-maximized="0"
     inkscape:current-layer="svg1" />
  <circle
     cx="15"
     cy="15"
     r="9"
     fill="black"
     id="circle1" />
  <path
     fill-rule="evenodd"
     clip-rule="evenodd"
     d="M15 27C21.6274 27 27 21.6274 27 15C27 8.37258 21.6274 3 15 3C8.37258 3 3 8.37258 3 15C3 21.6274 8.37258 27 15 27ZM20.5607 13.0607C21.1464 12.4749 21.1464 11.5251 20.5607 10.9393C19.9749 10.3536 19.0251 10.3536 18.4393 10.9393L13.5 15.8787L11.5607 13.9393C10.9749 13.3536 10.0251 13.3536 9.43934 13.9393C8.85355 14.5251 8.85355 15.4749 9.43934 16.0607L12.4393 19.0607C13.0251 19.6464 13.9749 19.6464 14.5607 19.0607L20.5607 13.0607Z"
     fill="#BFF747"
     id="path1" />
  <path
     style="mix-blend-mode:lighten;fill:#0000ff;fill-opacity:1;stroke:none;stroke-opacity:1"
     d="M 13.862005,26.93191 C 11.554583,26.692626 9.4283624,25.837857 7.5873221,24.409404 7.1189445,24.045992 6.1991283,23.147375 5.7885132,22.652051 3.1006073,19.409644 2.3080774,15.03247 3.6898049,11.060802 4.3095832,9.2792973 5.2646842,7.7883508 6.6617344,6.4215142 8.490385,4.6324113 10.692199,3.546529 13.33069,3.1325437 13.777632,3.0624174 14.024256,3.050261 15,3.050261 c 1.239047,0 1.633376,0.039771 2.658961,0.2681753 1.651888,0.3678861 3.322853,1.1660656 4.753717,2.2707351 0.477634,0.3687479 1.570912,1.4602162 1.973639,1.9703718 1.414895,1.7923261 2.242841,3.8181888 2.533268,6.1985418 0.06105,0.500391 0.06105,1.983439 0,2.48383 -0.290427,2.380353 -1.118373,4.406216 -2.533268,6.198542 -0.402727,0.510155 -1.496005,1.601624 -1.973639,1.970371 -1.712312,1.321956 -3.580595,2.122313 -5.723228,2.451785 -0.580329,0.08924 -2.242364,0.129971 -2.827445,0.0693 z m 0.03123,-7.470233 c 0.125995,-0.03282 0.29121,-0.09648 0.367145,-0.141481 0.191267,-0.113341 6.382381,-6.297251 6.520539,-6.512951 0.487575,-0.761236 0.180895,-1.792248 -0.650236,-2.185988 -0.235939,-0.111773 -0.294242,-0.123128 -0.628747,-0.122447 -0.3222,6.55e-4 -0.400504,0.01496 -0.620957,0.113437 -0.235737,0.105305 -0.420069,0.279961 -2.813713,2.666021 l -2.561449,2.553334 -1.02846,-1.021008 c -0.565653,-0.561555 -1.10951,-1.067933 -1.20857,-1.125285 -0.09906,-0.05735 -0.308343,-0.131014 -0.465074,-0.163693 C 10.11237,13.377466 9.4147419,13.734317 9.1087117,14.388643 9.0172091,14.584294 9.004297,14.659893 9.004297,15 c 0,0.656058 -0.058004,0.578397 1.893384,2.535007 0.922187,0.924655 1.746986,1.723001 1.832885,1.774103 0.334596,0.199052 0.766576,0.255737 1.162673,0.152567 z"
     id="path2" />
  <path
     style="fill:#5555ff;fill-opacity:1;stroke:none;stroke-width:0.0388098;stroke-opacity:1"
     d="M 13.406151,26.85527 C 11.346513,26.555196 9.4595748,25.775093 7.8007762,24.537883 7.2022929,24.091505 6.0364313,22.951616 5.6073028,22.393273 5.1075668,21.743062 4.6410621,20.995148 4.2880071,20.278137 3.4809187,18.639042 3.1142246,17.168121 3.0592673,15.349288 2.9604974,12.080462 4.1415379,9.0490537 6.432874,6.6901611 8.2767373,4.7919345 10.429986,3.6690625 13.175938,3.1738019 c 0.439737,-0.079311 0.606756,-0.08754 1.785252,-0.087959 1.396799,-4.96e-4 1.595161,0.016607 2.531694,0.2182911 2.061915,0.4440364 4.069605,1.485181 5.564966,2.8858711 1.172212,1.0979989 1.965342,2.1391382 2.611447,3.4280364 0.578995,1.1550235 0.902855,2.1672085 1.155496,3.6113645 0.09972,0.570011 0.106065,0.675984 0.106065,1.770594 0,1.09461 -0.0063,1.200583 -0.106065,1.770594 -0.258926,1.480081 -0.586033,2.488976 -1.193853,3.682187 -0.647687,1.271478 -1.415259,2.27344 -2.567412,3.351411 -1.62567,1.521002 -3.694069,2.546816 -5.996901,2.974139 -0.915793,0.169938 -2.756581,0.208629 -3.660476,0.07694 z m 0.608737,-7.415768 0.26498,-0.08184 1.107155,-1.088292 c 1.831444,-1.800241 5.275357,-5.276661 5.391824,-5.442717 0.181088,-0.258192 0.248046,-0.523526 0.229581,-0.909751 -0.01284,-0.268526 -0.03819,-0.383425 -0.122729,-0.556214 C 20.7369,11.056551 20.481121,10.78698 20.193244,10.630894 19.954705,10.501558 19.9365,10.49806 19.50194,10.49806 c -0.421622,0 -0.458121,0.0064 -0.659767,0.115661 -0.233882,0.12673 -0.817887,0.687346 -3.645068,3.499084 L 13.511934,15.788771 12.538632,14.84552 C 12.003316,14.326732 11.500764,13.847 11.42185,13.77945 c -0.222666,-0.190601 -0.535384,-0.287968 -0.92379,-0.287629 -0.5578328,4.86e-4 -0.9921544,0.232 -1.2848776,0.6849 -0.1995625,0.308762 -0.2399441,0.476771 -0.2220039,0.923656 0.022992,0.572714 0.011558,0.558075 1.9541615,2.501894 1.692412,1.69347 1.811993,1.797297 2.16783,1.882247 0.2417,0.0577 0.632289,0.0382 0.901718,-0.04502 z"
     id="path20" />
  <path
     style="fill:#0000d4;fill-opacity:1;stroke:none;stroke-width:0.0388098;stroke-opacity:1"
     d="M 14.126779,26.889782 C 11.911539,26.795271 9.2610109,25.740605 7.4708926,24.241354 6.8966053,23.760379 5.8791152,22.71304 5.5198629,22.233088 4.7376362,21.188053 4.0994744,19.983876 3.6816898,18.764554 3.2212715,17.420804 3.0564354,16.257898 3.0969856,14.639513 3.1263948,13.465769 3.2476815,12.665931 3.5562975,11.610534 4.5634965,8.1661389 7.2829428,5.2092579 10.644899,3.9030269 11.427736,3.5988688 12.101975,3.4064495 13.059508,3.2139274 13.480183,3.1293465 13.591656,3.1242294 15,3.1248517 c 1.6501,7.291e-4 1.735797,0.00922 2.81119,0.2784643 1.67855,0.4202591 3.30914,1.2240911 4.640298,2.2875277 0.466967,0.3730516 1.52082,1.4340694 1.902946,1.9158833 1.04364,1.3159037 1.795523,2.842691 2.207474,4.482536 0.281015,1.11863 0.32446,1.456669 0.34329,2.671102 0.01909,1.231012 -0.0043,1.537656 -0.186735,2.451795 -0.333301,1.669786 -0.894178,3.039969 -1.803127,4.404916 -0.418138,0.627907 -0.744198,1.029754 -1.313108,1.618315 -1.098316,1.136252 -2.122261,1.880425 -3.482994,2.531337 -1.861181,0.890303 -3.638889,1.223466 -5.992455,1.123054 z m 0.0024,-7.459521 c 0.183063,-0.05855 0.416586,-0.283607 3.420394,-3.296385 2.576657,-2.58435 3.245862,-3.276002 3.333226,-3.445029 0.09485,-0.183517 0.111326,-0.265377 0.124555,-0.618989 0.01304,-0.348566 0.003,-0.440155 -0.06969,-0.633261 -0.113998,-0.303015 -0.467597,-0.681282 -0.78522,-0.84 -0.218554,-0.109213 -0.266442,-0.117914 -0.64703,-0.117563 -0.349153,3.22e-4 -0.44021,0.01404 -0.605056,0.09114 -0.248989,0.116458 -0.767415,0.604905 -3.347239,3.153672 l -2.047328,2.022682 -1.066492,-1.024187 c -0.658354,-0.632239 -1.130132,-1.054995 -1.232789,-1.10469 -0.400504,-0.19388 -1.03473,-0.184334 -1.4413083,0.02169 -0.2317646,0.117444 -0.5477138,0.458213 -0.6849955,0.738807 -0.098242,0.200799 -0.1032252,0.237982 -0.090172,0.672847 0.013798,0.459688 0.014017,0.460608 0.1641217,0.689774 0.1748255,0.266907 3.2870671,3.395788 3.5560341,3.575045 0.09605,0.06402 0.227037,0.136008 0.291074,0.159979 0.1631,0.06105 0.885887,0.03187 1.127914,-0.04554 z"
     id="path21" />
</svg>
