<?xml version="1.0" encoding="UTF-8" standalone="no"?>
<svg
   width="30"
   height="30"
   viewBox="0 0 30 30"
   fill="none"
   version="1.1"
   id="svg1"
   sodipodi:docname="question.svg"
   inkscape:version="1.4.2 (f4327f4, 2025-05-13)"
   xmlns:inkscape="http://www.inkscape.org/namespaces/inkscape"
   xmlns:sodipodi="http://sodipodi.sourceforge.net/DTD/sodipodi-0.dtd"
   xmlns="http://www.w3.org/2000/svg"
   xmlns:svg="http://www.w3.org/2000/svg">
  <defs
     id="defs1" />
  <sodipodi:namedview
     id="namedview1"
     pagecolor="#ffffff"
     bordercolor="#000000"
     borderopacity="0.25"
     inkscape:showpageshadow="2"
     inkscape:pageopacity="0.0"
     inkscape:pagecheckerboard="0"
     inkscape:deskcolor="#d1d1d1"
     inkscape:zoom="25.766667"
     inkscape:cx="15.019405"
     inkscape:cy="15"
     inkscape:window-width="1920"
     inkscape:window-height="991"
     inkscape:window-x="-9"
     inkscape:window-y="-9"
     inkscape:window-maximized="1"
     inkscape:current-layer="svg1" />
  <circle
     cx="15"
     cy="15"
     r="9"
     fill="black"
     id="circle1" />
  <path
     fill-rule="evenodd"
     clip-rule="evenodd"
     d="M27 15C27 21.6274 21.6274 27 15 27C8.37258 27 3 21.6274 3 15C3 8.37258 8.37258 3 15 3C21.6274 3 27 8.37258 27 15ZM15 10.5C14.4467 10.5 13.9614 10.7988 13.6998 11.2511C13.285 11.9682 12.3674 12.2132 11.6503 11.7984C10.9332 11.3836 10.6881 10.466 11.103 9.74891C11.8788 8.40777 13.3325 7.5 15 7.5C17.4853 7.5 19.5 9.51472 19.5 12C19.5 13.9593 18.2478 15.6262 16.5 16.2439V16.5C16.5 17.3284 15.8284 18 15 18C14.1716 18 13.5 17.3284 13.5 16.5V15C13.5 14.1716 14.1716 13.5 15 13.5C15.8284 13.5 16.5 12.8284 16.5 12C16.5 11.1716 15.8284 10.5 15 10.5ZM15 22.5C15.8284 22.5 16.5 21.8284 16.5 21C16.5 20.1716 15.8284 19.5 15 19.5C14.1716 19.5 13.5 20.1716 13.5 21C13.5 21.8284 14.1716 22.5 15 22.5Z"
     fill="#BFF747"
     id="path1" />
  <path
     style="fill:#0000d4;stroke-width:0.0388098"
     d="M 13.862005,26.93191 C 11.554583,26.692626 9.4283624,25.837857 7.5873221,24.409404 7.1189445,24.045992 6.1991283,23.147375 5.7885132,22.652051 3.1006073,19.409644 2.3080774,15.03247 3.6898049,11.060802 4.3095832,9.2792973 5.2646842,7.7883508 6.6617344,6.4215142 8.490385,4.6324113 10.692199,3.546529 13.33069,3.1325437 13.777632,3.0624174 14.024256,3.050261 15,3.050261 c 1.239047,0 1.633376,0.039771 2.658961,0.2681753 1.651888,0.3678861 3.322853,1.1660656 4.753717,2.2707351 0.477634,0.3687479 1.570912,1.4602162 1.973639,1.9703718 1.414886,1.7923141 2.245867,3.8259328 2.532861,6.1985418 0.06053,0.500391 0.06053,1.983439 0,2.48383 -0.286994,2.372609 -1.117975,4.406228 -2.532861,6.198542 -0.402727,0.510155 -1.496005,1.601624 -1.973639,1.970371 -1.712312,1.321956 -3.580595,2.122313 -5.723228,2.451785 -0.580329,0.08924 -2.242364,0.129971 -2.827445,0.0693 z m 1.736456,-4.53206 c 0.855493,-0.383849 1.175656,-1.439573 0.675481,-2.227368 -0.155608,-0.245088 -0.34488,-0.404996 -0.651146,-0.550129 C 15.394053,19.513958 15.331897,19.50194 15,19.50194 c -0.331897,0 -0.394053,0.01202 -0.622796,0.120413 -0.306266,0.145133 -0.495538,0.305041 -0.651146,0.550129 -0.438724,0.691008 -0.253745,1.605175 0.420057,2.075913 0.298725,0.208698 0.495972,0.262481 0.9121,0.248702 0.257872,-0.0085 0.399266,-0.03399 0.540246,-0.09725 z m 0.07329,-4.540777 c 0.315335,-0.155239 0.612476,-0.472814 0.730751,-0.781004 0.04675,-0.121818 0.09103,-0.347376 0.102044,-0.519808 0.01913,-0.299552 0.02146,-0.30531 0.14038,-0.34673 0.265464,-0.09247 0.737733,-0.35471 1.02291,-0.568008 0.887067,-0.663481 1.452412,-1.511289 1.727246,-2.590228 0.07609,-0.298719 0.08711,-0.438411 0.0852,-1.080462 -0.002,-0.672556 -0.01126,-0.770953 -0.105317,-1.119167 C 19.252577,10.400589 18.952555,9.7543987 18.700729,9.4014962 17.259773,7.3821776 14.504837,6.8856811 12.446405,8.274338 11.875931,8.6591903 11.30764,9.2916345 11.035318,9.8447212 10.9143,10.090508 10.905563,10.134491 10.905563,10.497885 c 0,0.361561 0.0091,0.408201 0.126819,0.647375 0.159857,0.324888 0.502186,0.653207 0.793572,0.761095 0.742947,0.275081 1.466337,0.02429 1.904168,-0.660147 0.15338,-0.239772 0.395818,-0.460373 0.631135,-0.574288 0.726174,-0.351535 1.605552,-0.04241 1.966793,0.691372 0.116861,0.237379 0.127319,0.28897 0.127319,0.62813 0,0.32336 -0.01357,0.398592 -0.108649,0.602368 -0.237825,0.509717 -0.684858,0.815022 -1.283281,0.876429 -0.47486,0.04873 -0.720805,0.125113 -0.938931,0.291613 -0.261458,0.199575 -0.355523,0.313168 -0.495039,0.597806 l -0.123648,0.252264 v 1.14489 1.14489 l 0.107232,0.218266 c 0.20054,0.40819 0.529623,0.702459 0.93233,0.833696 0.103175,0.03362 0.293933,0.0493 0.51678,0.04246 0.307743,-0.0094 0.386253,-0.02709 0.609586,-0.137034 z"
     id="path2" />
</svg>
