<?xml version="1.0" encoding="UTF-8" standalone="no"?>
<svg
   width="55"
   height="70"
   viewBox="0 0 55 70"
   fill="none"
   version="1.1"
   id="svg5"
   sodipodi:docname="icon4.svg"
   inkscape:version="1.4.2 (f4327f4, 2025-05-13)"
   xmlns:inkscape="http://www.inkscape.org/namespaces/inkscape"
   xmlns:sodipodi="http://sodipodi.sourceforge.net/DTD/sodipodi-0.dtd"
   xmlns="http://www.w3.org/2000/svg"
   xmlns:svg="http://www.w3.org/2000/svg">
  <defs
     id="defs5" />
  <sodipodi:namedview
     id="namedview5"
     pagecolor="#ffffff"
     bordercolor="#000000"
     borderopacity="0.25"
     inkscape:showpageshadow="2"
     inkscape:pageopacity="0.0"
     inkscape:pagecheckerboard="0"
     inkscape:deskcolor="#d1d1d1"
     inkscape:zoom="11.042857"
     inkscape:cx="27.529107"
     inkscape:cy="35"
     inkscape:window-width="1920"
     inkscape:window-height="991"
     inkscape:window-x="-9"
     inkscape:window-y="-9"
     inkscape:window-maximized="1"
     inkscape:current-layer="svg5" />
  <path
     d="M17.5254 56.5938C17.6069 56.703 17.6791 57.0304 18.1127 57.1465C19.6739 57.5697 21.2358 57.6323 22.7564 57.0814C25.4858 56.9498 27.6911 55.1512 28.4474 52.9212C29.5747 52.6214 30.3358 51.0802 29.9956 49.7758C29.7816 48.9548 30.0307 48.9791 30.275 48.712C31.6264 47.2339 30.8966 45.1581 30.0442 45.3387C30.942 44.565 31.3241 43.1356 30.4892 41.893C31.226 41.4577 31.8935 40.8524 32.0745 40.3562C32.8237 38.3033 32.407 36.0929 33.3679 33.9528C34.2874 31.9047 35.7467 30.1455 36.9329 28.2542C40.0532 23.2789 40.5228 16.9608 38.182 11.5426C36.7587 8.24813 34.7431 5.05787 31.661 3.22317C28.6308 1.41925 26.0945 0.556609 22.2711 0.103853C16.3099 -0.598776 10.0043 2.31272 6.58042 7.35656C3.10554 12.4759 2.6543 19.5978 5.45791 25.0807C7.68598 29.4379 10.4212 31.0966 10.8121 36.3716C11.1786 41.3057 12.6539 40.995 13.2963 42.0118C12.7055 43.249 12.4917 44.6028 13.2926 45.7152C12.5323 46.8373 12.5781 48.3088 13.3208 49.3687C12.928 50.5849 13.3334 51.9125 14.2402 52.597C15.5336 54.3495 16.7986 55.8953 17.5254 56.5938ZM14.7579 44.9063C14.5172 44.7298 14.3768 44.3227 14.4082 43.8933C14.4632 43.1331 14.9287 42.4821 15.0008 42.2233C18.337 42.7644 22.658 42.6857 26.0925 42.2733C26.3577 42.7272 26.6059 43.214 26.6654 43.7104C26.7164 44.1378 26.5947 44.5523 26.3614 44.7426C25.9874 45.0466 25.8701 45.8581 26.3428 46.234C26.8847 46.6659 27.0536 47.5789 26.6303 48.2494C26.2002 48.476 26.059 49.0334 26.3401 49.4367C26.6061 49.8214 26.6828 50.4594 26.3454 50.9578C22.7069 52.1959 18.3843 52.3386 15.2705 51.3309C14.7307 50.9106 14.6868 50.0991 14.9997 49.5951C15.2606 49.1788 15.0936 48.6275 14.6516 48.4237C14.2018 47.7775 14.3264 46.8559 14.8488 46.3945C15.295 46.0024 15.1507 45.1964 14.7579 44.9063ZM18.0133 28.0315C19.6221 28.2111 21.2788 28.1229 22.8355 27.7998C22.3917 30.3775 21.978 34.8029 21.6029 40.944C20.9284 40.9613 20.2563 40.9637 19.5848 40.9512C19.4439 38.1737 19.052 32.7931 18.0133 28.0315ZM18.8722 55.6541C18.6838 55.3592 18.4157 55.3556 16.9205 53.3886C19.3979 53.7854 21.8343 53.6652 24.2662 53.1816C22.1509 55.7141 22.3342 55.3015 22.1058 55.5882C21.1571 55.9071 20.0733 55.9305 18.8722 55.6541ZM12.4406 36.2515C12.0151 30.5047 9.08962 28.5955 6.91207 24.3366C4.37102 19.3693 4.78079 12.9138 7.93146 8.27285C11.021 3.72117 16.7026 1.07967 22.0787 1.72596C27.4525 2.36268 32.3757 6.13307 34.6207 11.33C36.744 16.2441 36.0877 22.6528 32.9492 27.6563C31.1082 30.5902 28.6172 33.3336 28.3566 37.0998C28.2743 38.2815 28.5257 39.8905 27.549 40.4179C27.202 40.4641 25.882 40.7197 23.243 40.8757C23.5077 36.5759 23.8481 31.5451 24.5798 27.3246C27.8113 26.2204 30.7091 23.7596 31.0066 20.4365C31.309 17.0616 28.6555 15.0632 26.136 17.5622C24.1498 19.53 23.5839 23.2463 23.1363 26.0512C21.3861 26.5008 19.4387 26.6124 17.6035 26.3233C16.6836 22.8325 14.3301 16.5242 10.8467 17.9215C10.0064 18.2585 9.45843 18.8824 9.26072 19.7275C8.84616 21.4995 10.1021 23.7339 10.9913 24.7256C12.3604 26.2553 14.2317 27.2311 16.2759 27.7275C17.3763 32.4115 17.7947 37.9813 17.9467 40.8853C13.9601 40.6414 12.7876 40.977 12.4406 36.2515ZM24.8865 25.457C25.2952 22.977 25.8586 20.1357 27.2851 18.7219C27.6307 18.3781 28.2267 17.9205 28.6686 18.1277C29.0901 18.3265 29.4823 19.1514 29.3803 20.2909C29.1653 22.6953 27.0389 24.534 24.8865 25.457ZM15.7911 25.8875C14.3981 25.4261 13.148 24.6874 12.2073 23.6371C11.4839 22.8293 10.6181 21.0924 10.8504 20.0985C10.9253 19.7785 11.1114 19.5744 11.4536 19.4373C13.2729 18.7126 15.2442 24.0327 15.7911 25.8875Z"
     fill="black"
     id="path1" />
  <path
     d="M0 62.9036C0 66.2842 2.52212 69.0793 5.78141 69.5249C10.4031 71.3094 14.9173 67.8162 14.9731 63.2284C15.005 60.6118 13.4604 58.0511 11.1583 56.8072C9.52516 55.9246 6.92896 55.4702 5.20959 56.3493C5.21929 56.3594 5.23444 56.3652 5.24467 56.3748C2.2492 57.0378 0 59.7107 0 62.9036ZM6.68986 57.846C9.47859 57.846 11.7475 60.1144 11.7475 62.9036C11.7475 65.6929 9.47859 67.9613 6.68986 67.9613C3.90113 67.9613 1.63274 65.6929 1.63274 62.9036C1.63274 60.1144 3.90113 57.846 6.68986 57.846Z"
     fill="black"
     id="path2" />
  <path
     d="M16.8573 66.3041C33.595 70.9427 50.6022 57.4656 49.6853 39.9709C49.6614 39.5202 49.2755 39.1471 48.8275 39.1982C48.3773 39.2215 48.0313 39.6063 48.0547 40.056C48.9087 56.3501 33.0385 69.0871 17.2931 64.7309C16.861 64.6076 16.4087 64.8638 16.2886 65.2996C16.168 65.7344 16.4226 66.184 16.8573 66.3041Z"
     fill="black"
     id="path3" />
  <path
     d="M53.8527 37.8451C54.5064 37.8451 54.8949 37.1143 54.5319 36.5738C53.0862 34.419 51.6274 32.5234 50.1944 30.3873C49.9175 29.9759 49.2663 29.8548 48.8822 30.3278C47.2062 32.395 45.7182 34.4852 44.0738 36.5122C43.6426 37.044 44.0207 37.843 44.7079 37.843L53.8527 37.8451Z"
     fill="black"
     id="path4" />
  <path
     d="M54.5932 26.0614C53.2734 24.7504 51.9871 23.4555 50.7037 22.1613C51.8846 20.8945 53.0651 19.6272 54.2525 18.3622C54.5613 18.0327 54.5448 17.5161 54.2158 17.2078C53.8874 16.8995 53.3702 16.9144 53.062 17.244C51.887 18.4959 50.7193 19.7497 49.5515 21.0032C48.3071 19.7497 47.0642 18.4959 45.7853 17.2248C45.4654 16.9059 44.9488 16.9102 44.6309 17.2291C44.3131 17.548 44.3147 18.0656 44.6341 18.3835C45.9252 19.6662 47.18 20.9317 48.4361 22.1974C47.2327 23.4887 46.0299 24.7802 44.8196 26.0688C44.5113 26.3983 44.5273 26.9149 44.8563 27.2232C45.1838 27.5308 45.7014 27.5162 46.0102 27.1871C47.2074 25.9115 48.3977 24.6338 49.5883 23.3556C50.86 24.6375 52.1345 25.9208 53.442 27.22C53.7592 27.5351 54.2753 27.5384 54.5969 27.2158C54.9147 26.8958 54.9126 26.3792 54.5932 26.0614Z"
     fill="black"
     id="path5" />
  <path
     style="fill:#00007d;stroke-width:0.0905563"
     d="m 19.333765,57.352399 c -0.124515,-0.01959 -0.500658,-0.09973 -0.835874,-0.178101 -0.539827,-0.126201 -0.64332,-0.186681 -0.905563,-0.5292 -0.162843,-0.212694 -0.611415,-0.742617 -0.996824,-1.177608 -0.38541,-0.434991 -1.063347,-1.265346 -1.506529,-1.845233 -0.44318,-0.579886 -0.916322,-1.156216 -1.051427,-1.28073 -0.581251,-0.535694 -0.920798,-1.638803 -0.764569,-2.483917 0.08497,-0.459664 0.07332,-0.530356 -0.160753,-0.975431 -0.224606,-0.42707 -0.252413,-0.574499 -0.252799,-1.340338 -3.8e-4,-0.748866 0.03067,-0.923348 0.23939,-1.345087 l 0.239826,-0.484601 -0.239826,-0.462523 c -0.338239,-0.65232 -0.33173,-1.727378 0.016,-2.642903 L 13.35558,41.972833 12.646786,41.289805 C 11.50496,40.189486 11.147717,39.228658 10.865543,36.499032 10.536337,33.314447 10.113017,32.241455 7.8268712,28.796895 5.4204994,25.17119 4.7912469,23.907112 4.2056985,21.522483 2.6462065,15.171497 4.6213672,8.5259734 9.3057978,4.3629542 12.631145,1.4077426 17.2233,-0.18880213 21.560833,0.1022726 c 2.91354,0.19551616 5.757478,0.9490327 8.232181,2.1811597 3.221339,1.6038686 4.936609,3.1681661 6.730716,6.1383012 2.75649,4.5633545 3.642649,9.0715785 2.721456,13.8450885 -0.490222,2.540273 -1.409846,4.547027 -3.535961,7.715983 -2.563269,3.820529 -2.788837,4.358591 -3.148929,7.511326 -0.182934,1.601654 -0.348497,2.40924 -0.60453,2.948789 -0.136701,0.288078 -0.729034,0.886845 -1.244723,1.258244 l -0.251475,0.181113 0.188029,0.421936 c 0.406306,0.911746 0.301883,1.839083 -0.294577,2.616052 l -0.303636,0.395525 0.279319,0.139647 c 0.396144,0.198056 0.6309,0.728238 0.624483,1.410362 -0.0063,0.674824 -0.221413,1.194834 -0.743557,1.797862 -0.362532,0.418692 -0.379137,0.462447 -0.3093,0.815007 0.04059,0.204909 0.07186,0.678188 0.0695,1.051733 -0.0035,0.55082 -0.04922,0.765825 -0.241996,1.1377 -0.245516,0.473605 -0.821785,1.064986 -1.134482,1.164233 -0.09806,0.03112 -0.252722,0.228861 -0.343702,0.439422 -0.286553,0.663187 -0.932783,1.574238 -1.455532,2.052001 -0.977319,0.893215 -2.057073,1.398905 -3.566436,1.670298 -0.42335,0.07612 -1.05498,0.200744 -1.403622,0.27694 -0.576523,0.125999 -1.926335,0.170123 -2.490297,0.0814 z m 2.67155,-1.710582 c 0.322592,-0.157952 1.591113,-1.486206 2.149563,-2.250782 l 0.192504,-0.263558 -0.356097,0.06253 c -2.061345,0.361962 -5.049483,0.476549 -6.412244,0.245893 -0.342524,-0.05797 -0.643767,-0.08441 -0.66943,-0.05875 -0.05525,0.05525 1.187223,1.596482 1.630514,2.022584 0.393432,0.378176 0.8353,0.470664 2.108061,0.441241 0.769999,-0.0178 1.079494,-0.06322 1.357129,-0.199159 z m 0.814866,-3.812882 c 1.524501,-0.216358 3.408053,-0.710382 3.599612,-0.944119 0.219616,-0.267972 0.204498,-0.951797 -0.03291,-1.488493 -0.180207,-0.407387 -0.182936,-0.450362 -0.04674,-0.735962 0.07955,-0.166821 0.181104,-0.303311 0.225673,-0.303311 0.08618,0 0.241937,-0.343703 0.333045,-0.734928 0.08442,-0.362496 -0.108797,-0.931779 -0.458174,-1.349956 -0.407372,-0.487592 -0.437446,-1.015966 -0.08188,-1.438535 0.473049,-0.562187 0.469078,-1.242263 -0.01281,-2.19322 -0.167871,-0.331277 -0.269451,-0.439236 -0.382967,-0.407016 -1.066876,0.302814 -7.529883,0.379806 -9.696108,0.115506 -0.715546,-0.0873 -1.309006,-0.146508 -1.318801,-0.131566 -0.0098,0.01494 -0.124214,0.271669 -0.254267,0.570505 -0.446744,1.026539 -0.437059,1.637203 0.03448,2.174259 0.385078,0.43858 0.439836,0.918309 0.14511,1.271304 -0.358882,0.429835 -0.520281,0.818524 -0.520281,1.252971 0,0.526885 0.121641,0.833013 0.45458,1.144026 0.307808,0.287535 0.344551,0.587348 0.124203,1.013455 -0.220119,0.425662 -0.136969,1.281048 0.151736,1.56096 0.327008,0.31705 1.821343,0.64338 3.706739,0.809473 0.729597,0.06427 3.00986,-0.04061 4.029754,-0.185353 z M 21.723608,39.822122 c 0.161592,-3.103946 0.698654,-8.977058 1.011457,-11.06091 0.07397,-0.492782 0.114761,-0.915698 0.09065,-0.939813 -0.02412,-0.02412 -0.381602,0.01232 -0.794415,0.08096 -0.446117,0.07418 -1.423463,0.124807 -2.409452,0.124807 h -1.65888 l 0.04936,0.226391 c 0.607739,2.787516 1.264996,8.011742 1.466829,11.65912 l 0.06139,1.109314 h 1.060304 1.060304 z m -3.748556,0.815006 c -0.0015,-1.189549 -0.455383,-5.823153 -0.813881,-8.308538 -0.254429,-1.763902 -0.767079,-4.509314 -0.859229,-4.601464 -0.02364,-0.02364 -0.441217,-0.173083 -0.927956,-0.332103 C 13.267184,26.706721 11.593139,25.546098 10.57422,24.067322 9.672266,22.7583 9.2694379,21.670291 9.254839,20.503771 9.247019,19.87875 9.28186,19.698149 9.4938708,19.264816 c 0.6357162,-1.299357 2.1535062,-1.843182 3.4150512,-1.223617 0.972913,0.477813 2.009711,1.741974 2.916829,3.556472 0.477978,0.956093 1.233946,2.945783 1.521899,4.0056 0.198454,0.730417 0.209194,0.746958 0.528367,0.813722 0.660726,0.13821 3.269562,0.07538 4.234531,-0.101983 0.506207,-0.09304 0.957304,-0.194122 1.002434,-0.224624 0.04513,-0.0305 0.152884,-0.503711 0.239453,-1.051576 0.376521,-2.382887 0.927929,-4.340314 1.585463,-5.628192 0.473037,-0.926512 0.627768,-1.147178 1.236546,-1.763463 1.634189,-1.654344 3.516812,-1.481016 4.39308,0.404457 0.903456,1.943975 0.277912,4.500825 -1.584553,6.476697 -0.908511,0.963831 -2.564287,2.045729 -3.909915,2.55477 l -0.554369,0.209714 -0.106493,0.729412 c -0.278922,1.910444 -0.556484,4.268621 -0.725372,6.162789 -0.194591,2.182432 -0.459138,5.890403 -0.459138,6.435417 v 0.318577 l 0.701811,-0.0562 c 1.908942,-0.15287 3.68613,-0.413304 3.857648,-0.565311 0.396967,-0.351811 0.521253,-0.862037 0.607339,-2.493284 0.08725,-1.653269 0.13624,-1.952086 0.507574,-3.095861 0.451566,-1.390903 1.103939,-2.565727 3.003314,-5.408508 0.641408,-0.95999 1.352504,-2.074772 1.580214,-2.477292 1.066171,-1.884663 1.926562,-4.470469 2.257386,-6.784316 0.187287,-1.309919 0.136409,-4.125615 -0.09806,-5.4271 C 34.454204,8.0219014 28.932711,2.6620648 22.339958,1.7157038 21.8721,1.6485449 20.982677,1.6240639 19.985494,1.6508982 18.671137,1.6862677 18.187491,1.7386298 17.296248,1.9420506 14.642931,2.5476543 12.115437,3.8578293 10.127984,5.6578588 5.6887964,9.6784146 4.0300927,16.58433 6.0839588,22.494918 c 0.4945181,1.423118 1.2962953,2.892733 2.8460232,5.216609 1.656479,2.483953 2.302542,3.657595 2.740983,4.979288 0.406249,1.22465 0.556895,1.9866 0.734064,3.712807 0.379237,3.694995 0.951095,4.294818 4.257325,4.465517 1.440677,0.07438 1.31311,0.09693 1.312698,-0.232011 z M 15.80207,25.814481 c 0,-0.289736 -0.842803,-2.436351 -1.406723,-3.582916 -0.998721,-2.030604 -1.75946,-2.87722 -2.585372,-2.87722 -0.775041,0 -1.15743,0.620898 -0.9849,1.599216 0.150688,0.85446 0.805719,2.119335 1.459402,2.818124 0.638544,0.682604 1.747977,1.453179 2.660988,1.848229 0.66765,0.288885 0.856605,0.331804 0.856605,0.194567 z m 11.11517,-1.483122 c 1.447739,-1.116487 2.257277,-2.376102 2.463649,-3.833353 0.157527,-1.112342 -0.213292,-2.301625 -0.760469,-2.438957 -0.966809,-0.242654 -2.349116,1.474882 -2.993715,3.719735 -0.239854,0.835306 -0.76681,3.309513 -0.768221,3.607019 -6.72e-4,0.14157 0.111934,0.105917 0.768329,-0.243266 0.423015,-0.225031 1.003707,-0.590061 1.290427,-0.811178 z"
     id="path6" />
  <path
     style="fill:#00007d;stroke-width:0.0905563"
     d="m 44.187346,37.539692 c -0.426066,-0.426066 -0.339548,-0.631893 0.983889,-2.340674 0.66339,-0.856549 1.764954,-2.278749 2.447919,-3.160444 0.682965,-0.881695 1.347821,-1.686514 1.477458,-1.788486 0.484156,-0.380838 0.759222,-0.239416 1.444274,0.742553 0.286749,0.411033 1.057681,1.501214 1.713181,2.422624 1.811647,2.546558 2.396645,3.429655 2.396645,3.617912 0,0.09436 -0.105499,0.296933 -0.234441,0.450173 L 54.18183,37.761966 H 49.295725 44.40962 Z"
     id="path7" />
  <path
     style="fill:#00007d;stroke-width:0.0905563"
     d="m 45.232859,27.374572 c -0.321975,-0.11764 -0.543338,-0.423308 -0.543338,-0.750267 0,-0.301705 0.132581,-0.472524 1.551589,-1.999092 0.853374,-0.918059 1.718291,-1.843075 1.922038,-2.055591 l 0.370448,-0.386394 -2.030705,-2.032211 c -1.871565,-1.872952 -2.030705,-2.056991 -2.030705,-2.348429 0,-0.177667 0.07157,-0.395298 0.163336,-0.496703 0.20041,-0.221451 0.620577,-0.323914 0.841055,-0.205102 0.09008,0.04854 1.018176,0.947763 2.06243,1.998267 1.044255,1.050503 1.943261,1.910006 1.997791,1.910006 0.05453,0 0.891278,-0.854029 1.85944,-1.897841 0.968162,-1.043813 1.87528,-1.946474 2.015818,-2.005914 0.558284,-0.236125 1.169713,0.380843 0.933472,0.941926 -0.05628,0.133657 -0.81155,1.001718 -1.678387,1.929024 -0.866837,0.927306 -1.678127,1.807302 -1.802868,1.955548 l -0.2268,0.269537 2.051897,2.053354 c 1.926317,1.927683 2.051898,2.0736 2.051898,2.384167 0,0.258234 -0.06113,0.382249 -0.278617,0.565254 -0.326881,0.275052 -0.495099,0.290507 -0.820352,0.07537 -0.131276,-0.08683 -1.089376,-1.02977 -2.129111,-2.095417 l -1.890427,-1.937541 -1.928458,2.050736 c -1.060652,1.127905 -1.963546,2.050736 -2.006432,2.050736 -0.04289,0 -0.132245,0.01715 -0.198576,0.0381 -0.06633,0.02096 -0.181727,0.01577 -0.256436,-0.01153 z"
     id="path8" />
  <path
     style="fill:#00007d;stroke-width:0.0905563"
     d="m 21.507115,67.099692 c -2.192793,-0.207976 -4.736975,-0.762356 -5.003234,-1.090211 -0.233601,-0.287641 -0.203885,-0.771785 0.0638,-1.03947 0.275942,-0.275942 0.361375,-0.27568 1.515165,0.0046 6.505327,1.58049 13.476735,0.277087 19.18106,-3.586168 1.473446,-0.997892 2.41751,-1.775107 3.673901,-3.024594 3.855011,-3.833832 6.30103,-8.731282 7.010538,-14.036589 0.05329,-0.398447 0.121037,-1.600582 0.150558,-2.67141 0.04876,-1.768595 0.07005,-1.964924 0.232415,-2.14305 0.389624,-0.427441 1.048268,-0.293348 1.238423,0.25213 0.125132,0.358953 0.128835,2.320348 0.007,3.702046 -0.689874,7.822995 -4.943791,14.85939 -11.694583,19.343985 -3.293581,2.187948 -7.020091,3.59104 -11.032213,4.153812 -1.248385,0.175108 -4.147126,0.248289 -5.34282,0.134883 z"
     id="path9" />
  <path
     style="fill:#00007d;stroke-width:0.0905563"
     d="M 7.6385442,69.898476 C 7.2575959,69.867471 6.6667162,69.759631 6.3254782,69.658832 5.9842401,69.558032 5.4809185,69.426834 5.2069858,69.367281 4.933053,69.307727 4.2863213,69.055849 3.7698041,68.807553 2.971945,68.424012 2.71865,68.244771 2.0858897,67.615957 -0.0677846,65.475712 -0.55100176,62.489511 0.82877573,59.847204 1.6444461,58.285176 2.8807467,57.240248 4.6972535,56.577545 c 1.5733431,-0.573991 1.7810294,-0.621319 2.7259133,-0.621189 2.6301302,3.64e-4 4.9090752,1.207099 6.3059952,3.339118 0.862542,1.316437 1.222461,2.657197 1.146054,4.269243 -0.0835,1.761675 -0.806367,3.296472 -2.146248,4.556937 -1.425934,1.341415 -3.1303642,1.93635 -5.0904238,1.776822 z M 7.961215,67.828628 c 0.9669581,-0.247306 1.5292963,-0.571029 2.281673,-1.313496 1.032004,-1.018411 1.514367,-2.154577 1.519276,-3.578521 0.0099,-2.879638 -2.1915557,-5.099906 -5.0609997,-5.104184 -1.4397883,-0.0021 -2.5990275,0.482397 -3.6297581,1.517181 -1.2828585,1.287904 -1.760324,3.031398 -1.3111379,4.787698 0.2044413,0.799358 0.3990335,1.207925 0.8797861,1.847203 1.2233601,1.626758 3.32424,2.354846 5.3211606,1.844119 z"
     id="path10" />
</svg>
