<?xml version="1.0" encoding="UTF-8" standalone="no"?>
<svg
   width="28"
   height="16"
   viewBox="0 0 28 16"
   fill="none"
   version="1.1"
   id="svg1"
   sodipodi:docname="accordion-inactive.svg"
   inkscape:version="1.4.2 (f4327f4, 2025-05-13)"
   xmlns:inkscape="http://www.inkscape.org/namespaces/inkscape"
   xmlns:sodipodi="http://sodipodi.sourceforge.net/DTD/sodipodi-0.dtd"
   xmlns="http://www.w3.org/2000/svg"
   xmlns:svg="http://www.w3.org/2000/svg">
  <defs
     id="defs1" />
  <sodipodi:namedview
     id="namedview1"
     pagecolor="#ffffff"
     bordercolor="#000000"
     borderopacity="0.25"
     inkscape:showpageshadow="2"
     inkscape:pageopacity="0.0"
     inkscape:pagecheckerboard="0"
     inkscape:deskcolor="#d1d1d1"
     inkscape:zoom="48.3125"
     inkscape:cx="13.992238"
     inkscape:cy="8"
     inkscape:window-width="1920"
     inkscape:window-height="991"
     inkscape:window-x="-9"
     inkscape:window-y="-9"
     inkscape:window-maximized="1"
     inkscape:current-layer="svg1" />
  <path
     d="M26 1.5459C26 1.5459 20 2.06636 16.8 7.5459C15.3347 10.055 14 13.5459 14 13.5459M14 13.5459V13.5664M14 13.5459C14 13.5459 12.585 10.1002 11.2 7.5459C7.94669 1.5459 2 1.5459 2 1.5459"
     stroke="black"
     stroke-width="3"
     stroke-linecap="round"
     stroke-linejoin="round"
     id="path1" />
  <path
     style="fill:#00007d;stroke-width:0.0206986"
     d="M 13.634639,15.006124 C 13.135995,14.875475 12.779455,14.542129 12.584204,14.024019 12.524107,13.864547 12.167301,13.032887 11.863138,12.343322 10.996005,10.377455 10.059665,8.4870092 9.5374946,7.6479071 8.3112501,5.6773924 6.5526673,4.2633203 4.4150559,3.5289662 3.6074577,3.2515243 2.8366321,3.0898262 2.0958109,3.042452 1.7219829,3.0185463 1.5600604,2.9827995 1.3454075,2.876789 0.57024555,2.4939602 0.2813009,1.5333093 0.71781038,0.79022412 0.75561492,0.72586813 0.86617151,0.59271779 0.96349168,0.49433447 1.113554,0.34263282 1.1701593,0.30116935 1.3360661,0.22142324 1.6268805,0.08163797 1.7867028,0.05342133 2.2034273,0.0682906 2.9496267,0.09491594 3.9056135,0.26412585 4.8020699,0.52825099 7.9135698,1.4449999 10.444857,3.4091053 12.164021,6.240621 c 0.346343,0.5704364 1.010718,1.8555454 1.562309,3.0219922 0.129201,0.2732212 0.241886,0.4990903 0.25041,0.5019314 0.0085,0.00284 0.06136,-0.09496 0.11741,-0.2173351 0.341721,-0.7460626 1.030052,-2.0778746 1.414781,-2.7373777 1.748312,-2.9969618 4.575626,-5.1905028 8.056399,-6.2504707 0.934081,-0.28444734 1.978424,-0.49685934 2.444295,-0.49715321 0.544414,-3.4342e-4 1.051036,0.31098592 1.309535,0.80473396 0.303184,0.57910205 0.185324,1.28636875 -0.29037,1.74248325 -0.273207,0.2619606 -0.505124,0.3629514 -0.995022,0.4332935 -2.3828,0.342135 -4.820254,1.5761233 -6.438728,3.2596795 -0.922324,0.959412 -1.515131,1.8706037 -2.437581,3.7467609 -0.615863,1.252593 -1.429584,3.110093 -1.748252,3.990775 -0.173236,0.478762 -0.569858,0.845168 -1.046945,0.967187 -0.209931,0.05369 -0.520521,0.05327 -0.727623,-9.97e-4 z"
     id="path2" />
</svg>
