<?xml version="1.0" encoding="UTF-8" standalone="no"?>
<svg
   width="10"
   height="17"
   viewBox="0 0 10 17"
   fill="none"
   version="1.1"
   id="svg1"
   sodipodi:docname="facebook.svg"
   inkscape:version="1.4.2 (f4327f4, 2025-05-13)"
   xmlns:inkscape="http://www.inkscape.org/namespaces/inkscape"
   xmlns:sodipodi="http://sodipodi.sourceforge.net/DTD/sodipodi-0.dtd"
   xmlns="http://www.w3.org/2000/svg"
   xmlns:svg="http://www.w3.org/2000/svg">
  <defs
     id="defs1" />
  <sodipodi:namedview
     id="namedview1"
     pagecolor="#ffffff"
     bordercolor="#000000"
     borderopacity="0.25"
     inkscape:showpageshadow="2"
     inkscape:pageopacity="0.0"
     inkscape:pagecheckerboard="0"
     inkscape:deskcolor="#d1d1d1"
     inkscape:zoom="45.470588"
     inkscape:cx="4.992238"
     inkscape:cy="8.5"
     inkscape:window-width="1920"
     inkscape:window-height="991"
     inkscape:window-x="-9"
     inkscape:window-y="-9"
     inkscape:window-maximized="1"
     inkscape:current-layer="svg1" />
  <path
     d="M3.3473 16.2572V9.16739H0.961426V6.40434H3.3473V4.36668C3.3473 2.00198 4.79158 0.714355 6.90105 0.714355C7.91151 0.714355 8.77995 0.789586 9.03304 0.823212V3.29446L7.57 3.29512C6.42275 3.29512 6.20062 3.84028 6.20062 4.64026V6.40434H8.9367L8.58045 9.16739H6.20061V16.2572H3.3473Z"
     fill="black"
     id="path1" />
  <path
     style="fill:none;stroke-width:0.0219922"
     d="M 3.3538163,12.700517 V 9.148771 H 2.1662354 0.97865459 V 7.7852523 6.4217335 h 1.18573921 1.185739 l 0.00972,-1.2700517 C 3.3677427,4.1195563 3.3763034,3.8388525 3.4055442,3.6532837 3.6489403,2.1086413 4.5147364,1.147408 5.9506296,0.82765187 6.2863686,0.75288682 6.5785492,0.72574386 7.0476183,0.72574386 c 0.557417,0 1.598453,0.0555338 1.8977245,0.10123371 l 0.082471,0.0125936 V 2.0582073 3.2768435 l -0.7312419,1.88e-4 c -0.4021831,1.036e-4 -0.842061,0.01 -0.9775068,0.021988 -0.6939354,0.06143 -1.0178547,0.3416982 -1.1054454,0.9564783 -0.012063,0.08467 -0.022129,0.6067108 -0.022369,1.1600905 L 6.190815,6.4217335 h 1.3635188 c 0.7499353,0 1.3636063,0.00742 1.3637131,0.016494 3.757e-4,0.031879 -0.331264,2.612161 -0.3420219,2.6610608 L 8.5651388,9.148771 H 7.3779769 6.190815 v 3.551746 3.551747 H 4.7723157 3.3538163 Z"
     id="path2" />
  <path
     style="fill:none;stroke-width:0.0219922"
     d="M 3.3538163,12.700517 V 9.148771 H 2.1662354 0.97865459 V 7.7852523 6.4217335 h 1.18573921 1.185739 l 0.00972,-1.2700517 C 3.3677427,4.1195563 3.3763034,3.8388525 3.4055442,3.6532837 3.6489403,2.1086413 4.5147364,1.147408 5.9506296,0.82765187 6.2863686,0.75288682 6.5785492,0.72574386 7.0476183,0.72574386 c 0.557417,0 1.598453,0.0555338 1.8977245,0.10123371 l 0.082471,0.0125936 V 2.0582073 3.2768435 l -0.7312419,1.88e-4 c -0.4021831,1.036e-4 -0.842061,0.01 -0.9775068,0.021988 -0.6939354,0.06143 -1.0178547,0.3416982 -1.1054454,0.9564783 -0.012063,0.08467 -0.022129,0.6067108 -0.022369,1.1600905 L 6.190815,6.4217335 h 1.3635188 c 0.7499353,0 1.3636063,0.00742 1.3637131,0.016494 3.757e-4,0.031879 -0.331264,2.612161 -0.3420219,2.6610608 L 8.5651388,9.148771 H 7.3779769 6.190815 v 3.551746 3.551747 H 4.7723157 3.3538163 Z"
     id="path3" />
  <path
     style="fill:none;stroke-width:0.0219922"
     d="M 3.3538163,12.700517 V 9.148771 H 2.1662354 0.97865459 V 7.7852523 6.4217335 h 1.18573921 1.185739 l 0.00972,-1.2700517 C 3.3677427,4.1195563 3.3763034,3.8388525 3.4055442,3.6532837 3.6489403,2.1086413 4.5147364,1.147408 5.9506296,0.82765187 6.2863686,0.75288682 6.5785492,0.72574386 7.0476183,0.72574386 c 0.557417,0 1.598453,0.0555338 1.8977245,0.10123371 l 0.082471,0.0125936 V 2.0582073 3.2768435 l -0.7312419,1.88e-4 c -0.4021831,1.036e-4 -0.842061,0.01 -0.9775068,0.021988 -0.6939354,0.06143 -1.0178547,0.3416982 -1.1054454,0.9564783 -0.012063,0.08467 -0.022129,0.6067108 -0.022369,1.1600905 L 6.190815,6.4217335 h 1.3635188 c 0.7499353,0 1.3636063,0.00742 1.3637131,0.016494 3.757e-4,0.031879 -0.331264,2.612161 -0.3420219,2.6610608 L 8.5651388,9.148771 H 7.3779769 6.190815 v 3.551746 3.551747 H 4.7723157 3.3538163 Z"
     id="path4" />
</svg>
